<svg width="915" height="284" viewBox="0 0 915 284" fill="none" xmlns="http://www.w3.org/2000/svg">
<path d="M0.448658 225L37.2981 15.8792H77.5255L127.579 158.978H125.43L175.484 15.8792H215.711L252.868 225H207.727L193.294 131.648C191.452 119.16 189.712 106.775 188.074 94.4914C186.641 82.0036 185.413 69.5157 184.389 57.0278H196.979C193.704 70.5393 190.428 83.2319 187.153 95.1056C184.082 106.979 180.397 118.955 176.098 131.034L144.162 222.543H108.848L76.9113 131.034C72.6122 118.751 68.8249 106.775 65.5494 95.1056C62.4786 83.2319 59.3055 70.5393 56.0299 57.0278H68.6202C67.5966 69.5157 66.3683 82.0036 64.9352 94.4914C63.5022 106.775 61.7621 119.16 59.7149 131.648L45.2822 225H0.448658ZM325.732 228.685C314.677 228.685 305.669 227.047 298.709 223.772C291.953 220.496 286.63 215.992 282.741 210.26C279.056 204.323 276.497 197.67 275.064 190.3C273.835 182.725 273.221 174.741 273.221 166.348V74.8384H318.055V163.891C318.055 172.285 319.795 177.915 323.275 180.781C326.755 183.442 331.054 184.773 336.172 184.773C340.676 184.773 345.078 184.056 349.377 182.623C353.676 180.985 357.873 178.733 361.967 175.867C366.061 172.797 369.746 169.112 373.022 164.813L380.699 187.536H368.109V74.8384H413.249V225H379.778L370.565 195.213L385.919 196.442C381.006 202.174 375.274 207.599 368.723 212.717C362.376 217.63 355.621 221.52 348.455 224.386C341.29 227.252 333.716 228.685 325.732 228.685ZM499.464 229.606C487.385 229.606 476.024 227.252 465.378 222.543C454.937 217.835 445.418 209.748 436.82 198.284L462.307 173.718C469.268 180.883 475.921 186.001 482.268 189.072C488.614 192.143 495.574 193.678 503.149 193.678C507.653 193.678 511.235 192.757 513.897 190.914C516.763 188.867 518.196 186.41 518.196 183.544C518.196 181.088 517.377 179.041 515.739 177.403C514.101 175.765 511.031 174.127 506.527 172.489C502.023 170.852 495.472 168.907 486.874 166.655C471.11 162.765 459.339 157.136 451.56 149.766C443.985 142.191 440.198 132.16 440.198 119.672C440.198 110.664 442.552 102.475 447.261 95.1056C451.969 87.531 458.725 81.4918 467.528 76.9879C476.331 72.4841 486.771 70.2322 498.85 70.2322C513.18 70.2322 525.361 72.9959 535.392 78.5233C545.423 83.846 553.715 90.3971 560.266 98.1764L532.628 121.821C528.125 117.727 522.7 114.247 516.353 111.381C510.007 108.515 502.842 107.082 494.858 107.082C490.559 107.082 486.874 107.901 483.803 109.538C480.732 111.176 479.197 113.633 479.197 116.908C479.197 119.979 481.039 122.538 484.724 124.585C488.409 126.632 495.779 128.987 506.834 131.648C525.463 136.152 538.77 142.191 546.754 149.766C554.943 157.34 559.037 167.474 559.037 180.166C559.037 189.993 556.478 198.694 551.36 206.268C546.242 213.638 539.179 219.37 530.172 223.465C521.164 227.559 510.928 229.606 499.464 229.606ZM628.49 225H583.656V74.8384H628.49V225ZM579.664 27.5482C579.664 19.5642 582.019 13.1155 586.727 8.20225C591.64 3.28899 598.089 0.832361 606.073 0.832361C614.057 0.832361 620.403 3.28899 625.112 8.20225C630.025 13.1155 632.482 19.5642 632.482 27.5482C632.482 35.3276 630.025 41.6739 625.112 46.5871C620.403 51.2957 614.057 53.6499 606.073 53.6499C598.089 53.6499 591.64 51.2957 586.727 46.5871C582.019 41.6739 579.664 35.3276 579.664 27.5482ZM671.452 225V65.0119C671.452 53.7523 673.499 44.1305 677.594 36.1464C681.893 28.1624 687.83 22.1232 695.404 18.0288C703.184 13.7297 712.191 11.5801 722.427 11.5801C727.75 11.5801 732.458 11.8872 736.553 12.5014C740.647 13.1155 743.923 13.7297 746.379 14.3438V55.1853C744.537 54.7759 742.49 54.3665 740.238 53.957C738.191 53.5476 735.632 53.3429 732.561 53.3429C727.443 53.3429 723.451 54.8783 720.585 57.949C717.923 60.8151 716.593 65.5237 716.593 72.0747V225H671.452ZM743.002 120.593H651.185V79.4446H743.002V120.593ZM811.154 213.638L750.966 74.8384H796.414L853.531 206.882L811.154 213.638ZM778.911 283.345L869.499 74.8384H914.947L824.665 283.345H778.911Z" fill="#D0B8FF"/>
</svg>
