<?xml version="1.0" encoding="utf-8"?>
<!-- Generator: Adobe Illustrator 25.4.1, SVG Export Plug-In . SVG Version: 6.00 Build 0)  -->
<svg version="1.1" id="Слой_1" xmlns="http://www.w3.org/2000/svg" xmlns:xlink="http://www.w3.org/1999/xlink" x="0px" y="0px"
	 viewBox="0 0 1920 1080" style="enable-background:new 0 0 1920 1080;" xml:space="preserve">
<style type="text/css">
	.st0{fill:#D0B8FF;}
	.st1{fill:#7C00FF;}
</style>
<path class="st0" d="M1168.41,441.34c25.69,14.83,25.69,51.92,0,66.75L930.38,645.52L692.36,782.94
	c-25.69,14.83-57.81-3.71-57.81-33.38V474.72V199.86c0-29.67,32.12-48.21,57.81-33.38l238.03,137.43L1168.41,441.34z"/>
<path class="st1" d="M1074.38,441.57L868.61,331.22L660.42,219.58c-23.7-12.71-53.33,3.18-53.33,28.6v223.29v223.29
	c0,25.42,29.63,41.31,53.33,28.6l21.28-11.41c0.02-0.01,70.36-39.59,100.1-78.67c0.52-0.68,0.79-1.52,1.17-2.29
	c0.05-0.1,0.1-0.21,0.15-0.31c25.73-47.43,26.08-95.21,26.08-95.21l-2.18-71.27l-1.47-33.87c0-1.64-2.25-2.13-2.91-0.62
	c-1.23,2.81-2.56,6.08-3.97,9.81c-2.6,6.85-5.3,14.6-8.09,23.25c-2.79,8.65-5.58,17.74-8.37,27.29c-2.79,9.55-5.39,18.85-7.81,27.9
	c-2.42,9.05-4.53,17.38-6.32,24.96c-1.65,6.94-2.9,12.69-3.77,17.25c-0.14,0.72-0.76,1.23-1.49,1.23l-14.92,0
	c-0.66,0-1.25-0.43-1.45-1.06l-40.39-126.47c-0.53-1.65-2.96-1.27-2.96,0.46v106.27c0,1.63,0.31,3.63,0.93,6
	c0.62,2.37,1.49,4.65,2.6,6.85c1.12,2.2,2.35,4.08,3.72,5.63c1.36,1.55,2.79,2.32,4.28,2.32h-50.77c-1.34,0-2.02-1.61-1.09-2.57
	c1.49-1.55,2.79-3.38,3.9-5.51c1.11-2.12,1.98-4.41,2.6-6.85c0.62-2.45,0.93-4.65,0.93-6.61V392.07c0-0.84,0.68-1.52,1.52-1.52
	h44.63c0.64,0,1.21,0.4,1.43,1.01l40.44,113.5c0.5,1.39,2.47,1.33,2.88-0.08c5.38-18.62,11.46-37.55,18.22-56.79
	c7.2-20.48,15.3-39.42,24.3-56.82c0.26-0.51,0.78-0.82,1.35-0.82h32.69c0.84,0,1.52,0.68,1.52,1.52V529.7
	c1.13,11.08,3.72,22.47,9.2,29.92c1.22,1.41,2.63,2.91,4.22,4.44c1.4,1.11,2.44,2.06,3.18,2.88c14.01,11.87,39.32,23.51,78.84,8.47
	c1.82-0.69,3.52-1.31,5.13-1.87l134.59-72.18C1098.23,488.56,1098.23,454.36,1074.38,441.57z"/>
<path class="st1" d="M804.96,514.58c0,0,28.52,115.96-85.21,171.46s66.31-108.75,69.06-124.55S804.96,514.58,804.96,514.58z"/>
<path class="st1" d="M649.38,726.69c0,0,56.37-20.7,109.88-67.84S615.94,715.86,649.38,726.69z"/>
<path class="st1" d="M804.83,459.06c0,0,12.29,99.18-4.34,129.19C785.5,615.28,789.04,455.61,804.83,459.06z"/>
</svg>
